<svg width="25" height="39" viewBox="0 0 25 39" fill="none" xmlns="http://www.w3.org/2000/svg">
<path d="M8.36358 0.870285C6.64991 0.962089 6.03789 0.931487 4.63023 0.809082C4.47722 0.809082 4.32421 0.931487 4.35481 1.1151C6.06849 8.55121 5.79307 15.2529 2.27393 22.1076C9.80184 13.6616 9.86305 6.95994 8.792 1.2069C8.7614 1.02329 8.57779 0.870285 8.36358 0.870285Z" fill="#004669"/>
<path d="M22.5935 22.1687C22.0427 21.8321 21.3082 21.5566 20.482 21.3118C20.2678 21.2506 20.0842 21.4954 20.2066 21.679C25.2558 28.6867 20.8186 35.6332 15.5552 37.8977C24.7662 35.3884 26.2656 26.0856 22.6853 22.2605C22.6853 22.2605 22.6547 22.1993 22.5935 22.1687Z" fill="#004669"/>
<path d="M17.4217 20.8224C17.3299 20.7306 17.2075 20.6694 17.1157 20.6388C16.4119 20.4552 14.4534 20.0573 12.3725 19.9043C12.1277 19.8737 12.0053 20.2104 12.2501 20.3634C16.2895 22.6891 17.4829 26.3 17.2381 29.605C17.1157 31.2574 16.4731 32.6651 15.5245 33.7667C14.2086 33.6137 11.9135 33.1241 9.61841 31.2574C6.25227 28.5339 5.88505 23.0563 8.21075 19.0475C8.21075 19.0475 8.24135 19.0475 8.24135 19.0169C12.3419 15.2223 17.5441 9.5611 17.0545 0.35011C17.0545 0.105299 16.8097 -0.0477071 16.5955 0.0134955C15.2797 0.411312 14.0556 0.59492 12.5867 0.656123C12.3419 0.656123 12.1583 0.870332 12.1889 1.11514C13.107 12.5906 7.72113 17.3644 3.06973 21.9852C-2.86692 27.9219 0.223812 38.4487 8.76157 38.7547C14.8206 38.9689 20.1759 35.4804 20.4207 28.6257C20.5431 25.9634 19.6556 23.0869 17.4217 20.8224ZM4.26318 32.9711C1.81508 29.6662 2.09049 24.5863 5.05882 21.8322C5.27303 21.6486 5.57904 21.4038 5.94626 21.0978C3.43695 25.1678 4.41619 30.7984 7.84354 33.1547C9.58781 34.3482 11.3015 35.0214 13.7802 35.2968C13.5354 35.4498 13.2906 35.5722 13.0152 35.6946C10.7813 36.7045 6.71129 36.2454 4.26318 32.9711Z" fill="#004669"/>
</svg>
