<svg width="440" height="59" viewBox="0 0 440 59" fill="none" xmlns="http://www.w3.org/2000/svg">
<path fill-rule="evenodd" clip-rule="evenodd" d="M90.44 44.08L89.85 43.49C86.7 46.85 85.33 47.74 82.97 47.74C81.2 47.74 79.14 46.65 76.29 43.98V35.88L90.44 25L80.81 15.41C76.58 18.77 75.89 19.36 72.85 21.73C71.18 23.01 70.2 23.61 69.11 24.1C69.31 25.29 69.5 26.97 69.5 28.15V46.24C67.83 47.82 66.26 48.51 65.08 48.51C63.51 48.51 62.33 47.52 62.33 45.84V21.63C61.35 18.57 59.48 16.59 55.84 15.31L46.89 22.62V5.62C46.89 3.15 48.27 0.879999 49.54 0.279999V0C45.9 0 43.35 2.37001 42.27 5.14001L40.7 1.88L40.11 1.98001V45.46C36.57 47.34 32.74 49.41 28.51 49.41C27.72 49.41 27.04 49.41 26.25 49.31V12.15C28.12 12.35 29.3 12.45 30.38 12.45C32.05 12.45 33.13 12.15 33.92 11.76L38.74 1.88L37.95 1.67999C36.08 5.43999 35.1 6.03 31.07 6.03C29.2 6.03 25.07 5.54001 20.94 5.04001C17.01 4.55001 12.98 4.04999 10.91 4.04999C4.82 4.04999 1.28 8.29999 1.28 12.65C1.28 14.43 1.87 16.21 3.05 17.79L3.74 17.3C2.95 16.31 2.46 15.03 2.46 13.94C2.46 12.16 3.84 10.58 7.57 10.58C9.04 10.58 14.25 11.07 19.17 11.47C13.57 14.24 8.95 17.2 3.54 21.35C1.18 24.51 0 28.56 0 32.71C0 43.38 8.06 54.95 25.85 54.95C31.06 51.98 38.73 47.54 38.73 47.54L45.81 53.96L50.73 49.12L46.9 45.07V24.42C48.57 22.15 50.44 21.16 51.91 21.16C53.58 21.16 55.15 22.35 55.55 24.52V49.33C56.14 51.41 58.6 53.38 61.05 54.07L69.8 47.45L79.93 54.47L90.44 44.08ZM84.24 28.17L76.28 34.59V20.75L76.57 20.45L84.24 28.17ZM25.26 49.22C20.34 48.63 16.12 46.75 12.97 43.88C19.06 39.43 20.44 36.86 20.44 31.92V11.86L20.64 11.66C22.61 11.86 23.69 11.96 25.26 12.06V49.22ZM14.06 36.76C14.06 39.72 13.57 41.5 12 42.89C8.36 39.13 6.4 33.8 6.4 27.77C6.4 24.41 6.99 21.84 8.17 20.06C10.14 18.28 12.5 16.6 14.07 15.71V23.32V36.76H14.06ZM179.01 21.35L167.71 15.12C164.27 18.58 159.85 21.35 154.83 24.11C155.52 26.19 155.32 28.85 155.32 32.21C155.32 40.41 155.42 44.86 153.94 47.03L166.42 54.74C169.86 51.18 173.6 48.42 178.61 45.65C178.22 44.36 178.12 43.08 178.12 41.89V27.86C178.12 23.72 178.52 22.24 179.01 21.35ZM150.89 29.94L142.14 24.11C145.48 22.03 146.56 21.44 147.74 20.55C149.8 19.07 150.39 18.18 150.39 17.29C150.39 16.6 150.1 15.31 148.52 12.94C146.55 9.98 144.69 7.10999 140.75 1.57999C135.25 5.33999 132.2 7.60999 126.4 12.15C124.04 14.03 122.27 16.99 122.27 20.75C122.27 22.03 122.37 28.66 122.37 33C122.37 36.36 121.78 38.14 118.24 41.1C109.69 41.1 104.58 46.63 104.58 52.17C104.58 54.54 105.37 57.01 107.14 58.99L107.73 58.4C106.65 57.21 105.76 55.34 105.76 53.16C105.76 50.19 107.92 46.93 114.71 46.93C122.18 46.93 129.16 52.07 133.19 54.54C138.99 49.6 142.63 47.52 150.1 45.05V32.5C150.11 31.62 150.4 30.74 150.89 29.94ZM130.35 4.94L130.15 4.35001C126.02 4.35001 123.76 3.85999 121.6 3.45999C119.54 3.15999 117.77 2.76999 115.31 2.76999C108.82 2.76999 104.6 6.13001 104.6 11.57C104.6 13.84 105.09 15.13 106.57 16.81L107.16 16.22C106.37 15.23 105.98 14.24 105.98 13.16C105.98 10.79 107.95 8.70999 112.27 8.70999C115.51 8.70999 118.46 9.29999 121.02 9.89999C115.52 13.95 112.17 16.92 112.17 25.51C111.38 25.21 110.3 25.02 108.83 25.02C104.7 25.02 102.54 27.79 102.54 30.46C102.54 31.65 102.83 32.93 103.62 33.82L104.31 33.42C104.02 32.83 103.82 32.23 103.82 31.64C103.82 29.86 105.2 28.48 107.75 28.48C110.01 28.48 111.68 29.47 112.47 30.85C112.47 36.88 111.29 39.94 108.14 39.94V40.63C112.86 40.63 118.56 37.17 118.56 31.64V20.57C118.55 11.46 123.86 7.21 130.35 4.94ZM171.05 49.51L170.66 49.81L162.89 45.07V20.07L171.05 24.71V49.51ZM143.23 20.36C143.23 22.53 141.26 23.62 134.68 27.77V21.44C134.68 18.28 134.88 16.5 134.97 15.21H133.59C133.79 16.59 133.88 18.27 133.88 21.44V46.64C129.75 44.17 124.74 41.6 119.43 41.2C124.44 38.33 129.46 34.48 129.46 28.85V16.5C129.46 12.55 131.03 10.18 135.16 6.62C138.4 11.46 139.68 13.54 142.24 17.89C142.83 18.88 143.23 19.86 143.23 20.36ZM142.14 32.71L141.94 46.94C140.47 47.73 139.48 48.22 138.11 49.21C137.03 48.52 135.95 47.83 134.67 47.04V28.66L142.14 32.71ZM286.06 47.44L285.37 46.65L282.03 49.52C280.36 49.52 279.18 48.33 279.18 46.46C279.18 44.78 279.28 25.21 279.38 21.85C278.1 19.28 276.43 17.3 272.7 16.02L263.75 22.64C263.75 19.87 262.18 17.4 259.13 15.82L253.92 20.27L256.67 23.23C256.67 23.23 256.57 40.62 256.57 43.49C256.57 46.36 254.51 48.43 254.51 48.43L262.67 54.46L267 49.12L263.76 46.15V24.41C265.33 22.33 267 21.44 268.48 21.44C270.15 21.44 271.53 22.63 271.92 24.31C272.02 25.6 272.02 27.67 272.02 29.84C272.02 33.2 272.02 45.06 271.92 49.7C272.51 51.78 275.56 54.64 277.52 54.64L286.06 47.44ZM250.38 46.05C249.99 44.77 249.89 43.48 249.89 42.29V21.54L239.18 15.51C235.74 18.97 231.81 21.44 226.79 24.21C227.08 25.2 227.28 26.78 227.28 27.87V45.36C225.71 47.04 224.13 48.03 222.76 48.03C221.38 48.03 220.01 47.44 218.53 45.86C218.53 44.48 218.63 29.45 218.63 20.26H226.3V18.38L218.63 18.08C218.63 18.08 218.73 10.87 218.83 9.38H217.95L207.24 20.75C202.62 20.06 199.18 18.38 194.17 14.92C190.24 18.97 187.58 20.85 182.87 23.12C183.07 25.49 183.16 26.78 183.16 29.15C183.16 31.92 183.16 32.81 182.96 35.18L189.25 39.63L183.35 45.86C180.79 48.53 179.81 50.7 179.81 52.88C179.81 54.86 180.6 56.44 181.78 57.92L182.47 57.52C181.68 56.33 181.19 54.95 181.19 53.67C181.19 51.59 182.27 49.82 185.32 49.82C188.37 49.82 191.71 51.8 195.05 54.47C198.79 51.01 201.54 48.74 205.67 46.66V36.58C205.67 35.39 205.77 34.9 206.06 34.11L199.77 29.86L207.83 21.06H211.57C211.57 30.05 211.47 41.62 211.47 42.9C211.47 44.48 211.18 46.46 210.09 48.04L219.04 54.66L226.71 47.64L237.82 54.95C242.12 50.9 245.56 48.23 250.38 46.05ZM242.71 49.71L242.32 50.01L234.46 45.17V20.46L242.72 25.4V49.71H242.71ZM202.11 25.69L193.85 34.68L190.21 32.01V20.05C193.95 22.63 196.11 24.02 202.11 25.69ZM198.86 49.51C196.01 46.94 192.08 44.77 185.79 44.77L195.42 34.49L198.76 37.45L198.86 49.51ZM385.54 20.95L373.74 14.82C370.1 18.18 366.56 20.65 361.85 23.02C362.14 23.91 362.44 27.57 362.44 29.84V46.15C361.36 47.34 360.28 47.93 359.2 47.93C358.12 47.93 356.94 47.44 355.46 46.35V6.82001C355.46 4.55001 356.84 1.88 358.61 1.88V1.57999C354.97 1.57999 351.73 3.26 350.75 6.03C349.87 4.55 348.49 3.26001 346.42 3.26001L346.32 3.66C347.5 3.66 348.68 7.01999 348.68 10.18V41.9C348.68 44.96 348.29 46.54 347.11 48.22L354.97 53.95L362.34 47.53L373.74 54.45C378.07 50.4 380.62 48.03 385.44 45.16C385.15 43.68 385.05 40.81 385.05 39.63V25.6C385.05 23.22 385.15 21.94 385.54 20.95ZM343.27 5.63L342.39 4.84L339.15 8.29999C339.15 8.29999 330.79 5.52999 324.01 1.57999C314.67 8.69999 307.59 13.74 298.45 20.26C296.29 23.52 295.11 27.77 295.11 32.42C295.11 45.07 306.71 54.95 321.36 54.95C330.9 50.9 337.68 45.26 342.69 38.45C342.98 37.07 343.08 35.09 343.08 34C343.08 24.81 336.89 19.67 330.3 18.09L343.27 5.63ZM378.27 48.72L377.68 49.12L369.32 43.78V20.16L378.17 24.51L378.27 48.72ZM332.85 14.13L322.33 23.52V8.98999C326.07 10.48 329.41 12.25 332.85 14.13ZM336.68 37.55C336.68 40.42 336.39 42.39 335.6 44.76C332.75 47.63 328.52 49.31 323.71 49.31H322.33V23.91C323.21 23.81 324 23.71 324.79 23.71C331.87 23.72 336.68 30.14 336.68 37.55ZM321.35 49.22C316.14 48.82 312.11 47.05 308.96 44.38C313.78 41.02 316.82 39.34 316.82 34.2V8.60001C317.31 8.20001 317.8 7.81 318.29 7.41C319.37 7.81 320.26 8.20001 321.34 8.60001V49.22H321.35ZM310.73 37.85C310.73 40.52 309.94 42.2 308.17 43.58C304.14 39.63 302.17 34.09 302.17 28.56C302.17 20.26 305.02 17.1 308.95 14.23C309.54 13.74 310.13 13.34 310.72 12.94V37.85H310.73ZM440 44.08L439.41 43.49C436.36 46.55 434.59 47.84 432.82 47.84C431.05 47.84 429.38 46.75 425.84 43.99V35.89L439.7 24.72C436.46 21.95 429.77 15.23 429.77 15.23C426.03 18.59 423.87 20.47 418.66 24.12C418.86 25.21 419.05 26.69 419.05 27.88V43.59C419.05 44.68 418.95 45.47 418.56 46.75L429.47 54.46L440 44.08ZM413.36 45.95C412.87 41.5 412.97 29.45 412.97 23.81C412.97 20.15 409.82 17.49 405.89 15.8L397.83 22.62V7.79999C397.83 5.32999 399.3 2.66 401.07 2.66V2.17001C397.24 2.17001 393.01 5.22999 392.32 7.20999C391.44 5.72999 389.37 4.84 387.4 4.84L387.3 5.63C389.27 5.63 391.13 8.99001 391.13 14.92C391.13 26.88 391.03 38.34 391.03 43.28C391.03 44.86 390.83 45.95 389.95 47.23L402.04 54.64C406.68 50.3 408.44 49.02 413.36 45.95ZM433.41 28.07L425.84 34.3V20.17L433.41 28.07ZM406.48 36.27C406.48 40.62 406.28 49.12 406.28 49.41L405.99 49.71L397.83 44.57V24.41C399.11 22.43 400.88 21.44 402.45 21.44C404.32 21.44 405.69 22.82 406.38 24.7C406.38 25.5 406.48 30.74 406.48 36.27Z" fill="#F9F9FE"/>
</svg>
