<svg width="59" height="59" viewBox="0 0 59 59" fill="none" xmlns="http://www.w3.org/2000/svg">
<path fill-rule="evenodd" clip-rule="evenodd" d="M29.7223 0C13.614 0 0.555664 13.0584 0.555664 29.1667C0.555664 45.275 13.614 58.3333 29.7223 58.3333C45.8306 58.3333 58.889 45.275 58.889 29.1667C58.889 13.0584 45.8306 0 29.7223 0ZM23.3096 13.7051C24.9689 13.6296 25.4991 13.6111 29.7238 13.6111H29.7189C33.9449 13.6111 34.4731 13.6296 36.1324 13.7051C37.7885 13.7809 38.9195 14.0431 39.9112 14.4278C40.9352 14.8247 41.8005 15.3562 42.6658 16.2215C43.5311 17.0862 44.0626 17.954 44.4612 18.9772C44.8436 19.9662 45.1061 21.0966 45.1839 22.7527C45.2584 24.4119 45.2779 24.9421 45.2779 29.1668C45.2779 33.3915 45.2584 33.9204 45.1839 35.5796C45.1061 37.235 44.8436 38.3657 44.4612 39.3551C44.0626 40.3779 43.5311 41.2458 42.6658 42.1105C41.8015 42.9757 40.9349 43.5085 39.9121 43.9058C38.9224 44.2905 37.7907 44.5527 36.1347 44.6285C34.4754 44.704 33.9468 44.7225 29.7218 44.7225C25.4975 44.7225 24.9676 44.704 23.3083 44.6285C21.6526 44.5527 20.5219 44.2905 19.5322 43.9058C18.5097 43.5085 17.6419 42.9757 16.7775 42.1105C15.9126 41.2458 15.3811 40.3779 14.9834 39.3548C14.5991 38.3657 14.3369 37.2354 14.2608 35.5793C14.1856 33.92 14.1668 33.3915 14.1668 29.1668C14.1668 24.9421 14.1862 24.4116 14.2604 22.7523C14.335 21.0969 14.5975 19.9662 14.9831 18.9768C15.3817 17.954 15.9132 17.0862 16.7785 16.2215C17.6432 15.3566 18.511 14.8251 19.5341 14.4278C20.5232 14.0431 21.6536 13.7809 23.3096 13.7051Z" fill="#F9F9FE"/>
<path fill-rule="evenodd" clip-rule="evenodd" d="M28.3282 16.414C28.5991 16.4136 28.8906 16.4138 29.2052 16.4139L29.7236 16.414C33.877 16.414 34.3693 16.429 36.0094 16.5035C37.5261 16.5728 38.3493 16.8263 38.8976 17.0392C39.6236 17.3211 40.1411 17.6582 40.6852 18.2026C41.2297 18.7471 41.5667 19.2656 41.8493 19.9915C42.0622 20.5392 42.316 21.3624 42.385 22.8791C42.4596 24.5189 42.4758 25.0115 42.4758 29.1629C42.4758 33.3144 42.4596 33.807 42.385 35.4468C42.3157 36.9635 42.0622 37.7866 41.8493 38.3343C41.5674 39.0603 41.2297 39.5772 40.6852 40.1213C40.1408 40.6657 39.6239 41.0028 38.8976 41.2847C38.3499 41.4986 37.5261 41.7514 36.0094 41.8207C34.3696 41.8953 33.877 41.9115 29.7236 41.9115C25.5699 41.9115 25.0777 41.8953 23.4378 41.8207C21.9212 41.7507 21.098 41.4973 20.5493 41.2844C19.8234 41.0025 19.3049 40.6654 18.7604 40.121C18.216 39.5765 17.8789 39.0593 17.5963 38.333C17.3834 37.7853 17.1297 36.9622 17.0606 35.4455C16.9861 33.8057 16.9712 33.3131 16.9712 29.159C16.9712 25.005 16.9861 24.515 17.0606 22.8752C17.13 21.3585 17.3834 20.5353 17.5963 19.987C17.8783 19.2611 18.216 18.7425 18.7604 18.1981C19.3049 17.6536 19.8234 17.3166 20.5493 17.034C21.0977 16.8201 21.9212 16.5673 23.4378 16.4977C24.8728 16.4328 25.429 16.4134 28.3282 16.4102V16.414ZM38.0272 18.9967C36.9966 18.9967 36.1605 19.8318 36.1605 20.8627C36.1605 21.8933 36.9966 22.7294 38.0272 22.7294C39.0577 22.7294 39.8938 21.8933 39.8938 20.8627C39.8938 19.8321 39.0577 18.996 38.0272 18.996V18.9967ZM21.7351 29.1661C21.7351 24.7544 25.3119 21.1775 29.7236 21.1775H29.7232C34.1349 21.1775 37.7108 24.7544 37.7108 29.1661C37.7108 33.5777 34.1352 37.1529 29.7236 37.1529C25.3119 37.1529 21.7351 33.5777 21.7351 29.1661Z" fill="#F9F9FE"/>
<path fill-rule="evenodd" clip-rule="evenodd" d="M29.7237 23.9814C32.5872 23.9814 34.9089 26.3028 34.9089 29.1667C34.9089 32.0302 32.5872 34.3519 29.7237 34.3519C26.8598 34.3519 24.5385 32.0302 24.5385 29.1667C24.5385 26.3028 26.8598 23.9814 29.7237 23.9814V23.9814Z" fill="#F9F9FE"/>
</svg>
