<svg width="436" height="46" viewBox="0 0 436 46" fill="none" xmlns="http://www.w3.org/2000/svg">
<path d="M396.57 11.9902V35.6688C396.57 41.3246 401.158 46 406.731 46C411.319 46 414.905 43.2098 416.209 39.2131L417.279 41.0984C419.189 44.2656 422.548 46 425.991 46C431.572 46 436 41.6262 436 36.0459C436 34.1606 435.545 32.3508 434.468 30.6918L430.495 24.4328C433.399 22.2459 435.158 18.777 435.158 14.5541C435.158 6.78688 428.895 0.754089 420.873 0.754089H407.656C400.468 0.754089 396.57 4.59999 396.57 11.9902Z" fill="#F9F9FE"/>
<path d="M393.537 37.3279C393.537 32.9918 390.747 29.7266 386.91 28.9649C388.647 27.8262 389.701 25.9259 389.701 23.4147C389.701 20.9036 388.722 19.0033 386.91 17.8646C390.83 17.1029 393.537 13.9131 393.537 9.50163C393.537 4.63016 389.617 0.754089 384.871 0.754089H369.046C361.819 0.754089 357.899 4.63016 357.899 12.0052V34.7413C357.899 42.1918 361.819 45.9925 369.053 45.9925H384.878C389.617 46.0754 393.537 42.1993 393.537 37.3279Z" fill="#F9F9FE"/>
<path d="M345.615 35.8197V20.2098C350.696 19.9836 354.866 15.7606 354.866 10.482C354.866 5.05245 350.468 0.754089 345.084 0.754089H324.46C319.076 0.754089 314.678 4.97704 314.678 10.482C314.678 15.7606 318.849 19.9082 323.929 20.2098V35.8197C323.929 41.4 328.706 46 334.62 46C340.914 46 345.615 41.4 345.615 35.8197Z" fill="#F9F9FE"/>
<path d="M274.49 11.9902V35.6688C274.49 41.3246 279.078 46 284.651 46C289.239 46 292.825 43.2098 294.129 39.2131L295.199 41.0984C297.109 44.2656 300.468 46 303.911 46C309.492 46 313.92 41.6262 313.92 36.0459C313.92 34.1606 313.465 32.3508 312.388 30.6918L308.415 24.4328C311.319 22.2459 313.078 18.777 313.078 14.5541C313.078 6.78688 306.815 0.754089 298.793 0.754089H285.576C278.464 0.754089 274.49 4.59999 274.49 11.9902Z" fill="#F9F9FE"/>
<path d="M249.407 37.3807C251.993 42.697 255.648 45.2459 260.137 45.2459C268.204 45.2459 273.907 37.9764 270.411 29.817L261.054 8.2423C258.764 2.91836 255.344 0 249.483 0C243.697 0 240.278 2.91836 237.919 8.2423L228.563 29.817C224.984 37.9764 230.769 45.2459 238.754 45.2459C243.167 45.2459 246.821 42.697 249.407 37.3807Z" fill="#F9F9FE"/>
<path d="M222.762 35.8197V20.2098C227.85 19.9836 232.028 15.7606 232.028 10.482C232.028 5.05245 227.622 0.754089 222.231 0.754089H201.644C196.245 0.754089 191.84 4.97704 191.84 10.482C191.84 15.7606 196.018 19.9082 201.106 20.2098V35.8197C201.106 41.4 205.891 46 211.82 46C217.977 46 222.762 41.4 222.762 35.8197Z" fill="#F9F9FE"/>
<path d="M191.84 31.3252C191.84 26.7856 189.558 23.6108 186.138 20.5793L183.325 18.0833C187.427 17.48 190.164 14.7577 190.164 10.7459C190.172 4.0118 184.773 0 173.376 0C162.207 0 155.671 5.59541 155.671 14.4485C155.671 18.9882 158.029 22.0875 161.449 25.1944L164.186 27.6905H164.11C159.022 27.6905 155.451 30.639 155.451 35.2541C155.451 41.9128 161.077 46 173.081 46C184.849 46 191.84 40.3292 191.84 31.3252Z" fill="#F9F9FE"/>
<path d="M153.169 35.1184C153.169 33.0144 152.554 30.9934 151.258 29.1911L146.36 22.5098L151.258 15.8285C152.562 14.1016 153.169 12.0052 153.169 9.90131C153.169 4.35115 148.498 0.0754098 142.993 0.0754098C139.778 0.0754098 136.563 1.65148 134.576 4.35115L132.203 7.6541C131.278 3.22754 127.38 0 122.398 0C116.658 0 112.223 4.50197 112.223 10.0521V35.1862C112.223 40.7364 116.742 45.2384 122.398 45.2384C127.297 45.2384 131.126 42.237 132.119 37.8859L134.265 40.8872C136.252 43.7377 139.543 45.2384 142.758 45.2384C148.498 45.3213 153.169 40.6685 153.169 35.1184Z" fill="#F9F9FE"/>
<path d="M108.431 32.8108C108.431 28.0148 106.02 24.6439 101.198 22.623C106.02 20.602 108.431 17.3066 108.431 12.4351C108.431 5.16557 102.327 0 92.523 0C79.4127 0 69.76 9.66 69.76 22.623C69.76 35.5859 79.4127 45.2459 92.523 45.2459C102.327 45.2459 108.431 40.0803 108.431 32.8108Z" fill="#F9F9FE"/>
<path d="M55.0118 0C48.8851 0 43.9791 4.96197 43.9791 10.8213V34.4246C43.9791 40.3593 48.8851 45.2459 54.936 45.2459C61.1386 45.2459 65.9687 40.2839 65.9687 34.4246V10.8213C66.0445 4.96197 61.1386 0 55.0118 0Z" fill="#F9F9FE"/>
<path d="M40.9461 35.1184C40.9461 33.0144 40.3319 30.9934 39.0353 29.1911L34.1445 22.5098L39.0353 15.8285C40.3319 14.1016 40.9461 12.0052 40.9461 9.90131C40.9461 4.35115 36.2828 0.0754098 30.7854 0.0754098C27.5779 0.0754098 24.3705 1.65148 22.3839 4.35115L19.9423 7.6541C19.0248 3.22754 15.1273 0 10.1607 0C4.42824 0 0 4.50197 0 10.0521V35.1862C0 40.7439 4.50407 45.2459 10.1607 45.2459C15.0515 45.2459 18.8731 42.2446 19.8589 37.8934L21.9971 40.8948C23.9838 43.7452 27.2746 45.2459 30.4821 45.2459C36.2828 45.3213 40.9461 40.6685 40.9461 35.1184Z" fill="#F9F9FE"/>
</svg>
