<svg width="230" height="39" viewBox="0 0 230 39" fill="none" xmlns="http://www.w3.org/2000/svg">
<path d="M8.36358 0.988266C6.64991 1.08007 6.03789 1.04947 4.63023 0.927063C4.47722 0.927063 4.32421 1.04947 4.35481 1.23308C6.06849 8.66919 5.79307 15.3709 2.27393 22.2256C9.80184 13.7796 9.86305 7.07792 8.792 1.32488C8.7614 1.14127 8.57779 0.988266 8.36358 0.988266Z" fill="#004669"/>
<path d="M22.5935 22.2868C22.0427 21.9502 21.3082 21.6748 20.482 21.43C20.2678 21.3688 20.0842 21.6136 20.2066 21.7972C25.2558 28.8049 20.8186 35.7514 15.5552 38.0159C24.7662 35.5066 26.2656 26.2038 22.6853 22.3786C22.6853 22.3786 22.6547 22.3174 22.5935 22.2868Z" fill="#004669"/>
<path d="M17.4217 20.9404C17.3299 20.8486 17.2075 20.7874 17.1157 20.7568C16.4119 20.5731 14.4534 20.1753 12.3725 20.0223C12.1277 19.9917 12.0053 20.3283 12.2501 20.4813C16.2895 22.807 17.4829 26.418 17.2381 29.7229C17.1157 31.3754 16.4731 32.7831 15.5245 33.8847C14.2086 33.7317 11.9135 33.2421 9.61841 31.3754C6.25227 28.6519 5.88505 23.1743 8.21075 19.1655C8.21075 19.1655 8.24135 19.1655 8.24135 19.1349C12.3419 15.3403 17.5441 9.67908 17.0545 0.468091C17.0545 0.22328 16.8097 0.0702739 16.5955 0.131476C15.2797 0.529293 14.0556 0.712901 12.5867 0.774104C12.3419 0.774104 12.1583 0.988313 12.1889 1.23312C13.107 12.7086 7.72113 17.4824 3.06973 22.1032C-2.86692 28.0399 0.223812 38.5667 8.76157 38.8727C14.8206 39.0869 20.1759 35.5984 20.4207 28.7437C20.5431 26.0814 19.6556 23.2049 17.4217 20.9404ZM4.26318 33.0891C1.81508 29.7841 2.09049 24.7043 5.05882 21.9502C5.27303 21.7666 5.57904 21.5218 5.94626 21.2158C3.43695 25.2857 4.41619 30.9164 7.84354 33.2727C9.58781 34.4661 11.3015 35.1394 13.7802 35.4148C13.5354 35.5678 13.2906 35.6902 13.0152 35.8126C10.7813 36.8224 6.71129 36.3634 4.26318 33.0891Z" fill="#004669"/>
<path d="M40.7798 29.0899C38.9632 29.002 37.5861 28.9727 36.7071 28.9727C36.3555 28.5625 36.1797 28.0644 36.1797 27.5077C36.7071 27.5077 37.088 27.4198 37.2931 27.244C37.4982 27.0682 37.6154 26.7459 37.6154 26.3064V15.2896C37.6154 14.8501 37.4982 14.557 37.2931 14.3519C37.088 14.1761 36.7071 14.0882 36.1797 14.0882C36.1797 13.5315 36.3555 13.0334 36.7071 12.6232C37.5861 12.6232 38.9339 12.5939 40.7505 12.5646C41.5709 12.5353 42.1276 12.506 42.4206 12.506C44.8818 12.506 46.6105 12.8869 47.636 13.6487C48.6615 14.4105 49.1596 15.3482 49.1596 16.4323C49.1596 17.3406 48.9252 18.1024 48.4564 18.7177C47.9876 19.333 47.2258 19.8604 46.171 20.2999C47.5481 20.5929 48.5443 21.0324 49.1596 21.6477C49.7456 22.263 50.0386 23.1713 50.0386 24.4019C50.0386 27.5956 47.636 29.1778 42.8601 29.1778C42.2741 29.1485 41.5709 29.1192 40.7798 29.0899ZM45.3506 16.9597C45.3506 16.0807 45.1162 15.4068 44.6474 14.9087C44.1786 14.4105 43.4461 14.1761 42.4792 14.1761C42.0397 14.1761 41.7174 14.2054 41.5123 14.264V19.6553C41.8053 19.6846 42.0397 19.7139 42.2155 19.7139C44.3251 19.7432 45.3506 18.8056 45.3506 16.9597ZM45.7901 24.607C45.7901 23.5229 45.5264 22.7318 44.9697 22.2044C44.413 21.677 43.534 21.4133 42.3034 21.4133L41.5416 21.4426V27.3612C41.9518 27.4198 42.3034 27.4198 42.5378 27.4198C44.6767 27.4491 45.7901 26.5115 45.7901 24.607Z" fill="#004669"/>
<path d="M61.2606 25.6325C61.3778 25.7497 61.495 25.9548 61.5829 26.1892C61.6708 26.4529 61.7294 26.658 61.7294 26.8338C61.7294 27.1268 61.5536 27.4491 61.1727 27.8007C60.7918 28.1816 60.2644 28.4746 59.6198 28.7383C58.9459 29.002 58.2134 29.1485 57.393 29.1485C56.2503 29.1485 55.2248 28.8848 54.3458 28.3867C53.4668 27.8886 52.8222 27.1561 52.3534 26.2185C51.8846 25.2516 51.6501 24.1382 51.6501 22.849C51.6501 21.5305 51.9138 20.3585 52.412 19.3623C52.9101 18.3661 53.6133 17.6043 54.5216 17.0476C55.4006 16.5202 56.4261 16.2272 57.5395 16.2272C58.9752 16.2272 60.0886 16.6374 60.9383 17.4578C61.788 18.2782 62.1982 19.4209 62.1982 20.9152C62.1982 21.5891 62.081 22.1458 61.8759 22.556C61.6708 22.9662 61.2606 23.142 60.7039 23.142H55.635C55.7229 25.3981 56.6898 26.5408 58.5357 26.5408C59.5026 26.5701 60.4109 26.2771 61.2606 25.6325ZM56.1331 18.6884C55.8108 19.2158 55.635 20.1241 55.6057 21.384H57.979C58.2427 21.384 58.3892 21.2961 58.4771 21.1203C58.565 20.9445 58.5943 20.6808 58.5943 20.3292C58.5943 19.4209 58.4771 18.7763 58.272 18.3954C58.0669 18.0438 57.7446 17.868 57.393 17.868C56.8656 17.868 56.4554 18.161 56.1331 18.6884Z" fill="#004669"/>
<path d="M68.7616 18.6298V25.2516C68.7616 25.7204 68.8495 26.0427 69.0546 26.2185C69.2304 26.3943 69.4941 26.4822 69.8457 26.4822C70.1387 26.4822 70.461 26.3943 70.7833 26.2478C71.1056 26.1013 71.3693 25.8962 71.5451 25.6618C71.6916 25.779 71.8088 25.9841 71.8967 26.2185C71.9553 26.4822 72.0139 26.6873 72.0139 26.8924C72.0139 27.244 71.8967 27.5956 71.633 27.9472C71.3693 28.2988 71.0177 28.5625 70.5196 28.7969C70.0215 29.002 69.4062 29.1192 68.703 29.1192C67.6189 29.1192 66.7399 28.7969 66.0659 28.1816C65.392 27.5663 65.0697 26.5115 65.0697 25.0758V18.6298H63.6047V17.1941C64.0149 17.1355 64.3958 16.8718 64.7767 16.403C65.1576 15.9342 65.4799 15.3774 65.7729 14.6742C66.0366 13.971 66.2124 13.2971 66.3003 12.5939C66.5933 12.5353 66.8277 12.5353 67.0622 12.5353C67.6189 12.5353 68.0291 12.6818 68.3221 13.0041C68.5858 13.3264 68.7323 13.678 68.7323 14.0589V16.5202H71.4572C71.4572 16.989 71.4279 17.3992 71.3986 17.7215C71.34 18.0438 71.2521 18.3368 71.1056 18.6005H68.7616V18.6298Z" fill="#004669"/>
<path d="M78.1961 18.6298V25.2516C78.1961 25.7204 78.284 26.0427 78.4891 26.2185C78.6649 26.3943 78.9286 26.4822 79.2802 26.4822C79.5732 26.4822 79.8955 26.3943 80.2178 26.2478C80.5401 26.1013 80.8038 25.8962 80.9796 25.6618C81.1261 25.779 81.2433 25.9841 81.3312 26.2185C81.3898 26.4822 81.4484 26.6873 81.4484 26.8924C81.4484 27.244 81.3312 27.5956 81.0675 27.9472C80.8038 28.2988 80.4522 28.5625 79.9541 28.7969C79.456 29.002 78.8407 29.1192 78.1375 29.1192C77.0534 29.1192 76.1744 28.7969 75.5005 28.1816C74.8266 27.5663 74.5043 26.5115 74.5043 25.0758V18.6298H73.0393V17.1941C73.4495 17.1355 73.8304 16.8718 74.2113 16.403C74.5922 15.9342 74.9145 15.3774 75.2075 14.6742C75.4712 13.971 75.647 13.2971 75.7349 12.5939C76.0279 12.5353 76.2623 12.5353 76.4967 12.5353C77.0534 12.5353 77.4636 12.6818 77.7566 13.0041C78.0203 13.3264 78.1668 13.678 78.1668 14.0589V16.5202H80.8917C80.8917 16.989 80.8624 17.3992 80.8331 17.7215C80.7745 18.0438 80.6866 18.3368 80.5401 18.6005H78.1961V18.6298Z" fill="#004669"/>
<path d="M92.436 25.6325C92.5532 25.7497 92.6704 25.9548 92.7583 26.1892C92.8462 26.4529 92.9048 26.658 92.9048 26.8338C92.9048 27.1268 92.729 27.4491 92.3481 27.8007C91.9672 28.1816 91.4398 28.4746 90.7952 28.7383C90.1213 29.002 89.3888 29.1485 88.5684 29.1485C87.4257 29.1485 86.4002 28.8848 85.5212 28.3867C84.6422 27.8886 83.9976 27.1561 83.5288 26.2185C83.06 25.2516 82.8256 24.1382 82.8256 22.849C82.8256 21.5305 83.0893 20.3585 83.5874 19.3623C84.0855 18.3661 84.7887 17.6043 85.697 17.0476C86.576 16.5202 87.6015 16.2272 88.7149 16.2272C90.1506 16.2272 91.264 16.6374 92.1137 17.4578C92.9634 18.2782 93.3736 19.4209 93.3736 20.9152C93.3736 21.5891 93.2564 22.1458 93.0513 22.556C92.8462 22.9662 92.436 23.142 91.8793 23.142H86.8104C86.8983 25.3981 87.8652 26.5408 89.7111 26.5408C90.678 26.5701 91.6156 26.2771 92.436 25.6325ZM87.3378 18.6884C87.0155 19.2158 86.8397 20.1241 86.8104 21.384H89.1837C89.4474 21.384 89.5939 21.2961 89.6818 21.1203C89.7697 20.9445 89.799 20.6808 89.799 20.3292C89.799 19.4209 89.6818 18.7763 89.4767 18.3954C89.2716 18.0438 88.9493 17.868 88.5977 17.868C88.0703 17.868 87.6601 18.161 87.3378 18.6884Z" fill="#004669"/>
<path d="M104.742 16.7839C105.064 17.1355 105.24 17.6336 105.24 18.2489C105.24 18.9228 105.064 19.4795 104.713 19.8897C104.361 20.2999 103.892 20.5343 103.306 20.5343C102.779 20.5343 102.368 20.3878 102.046 20.0948C101.724 19.8018 101.577 19.4502 101.577 19.04C101.577 18.7763 101.607 18.6005 101.636 18.454C101.079 18.6005 100.61 18.8349 100.2 19.1865V26.2185C100.2 26.5994 100.259 26.8924 100.376 27.0975C100.493 27.3026 100.698 27.4491 101.021 27.5663C101.343 27.6542 101.812 27.7128 102.456 27.7128C102.456 28.0058 102.427 28.2402 102.368 28.416C102.31 28.6211 102.193 28.7969 102.017 28.9727H95.7467C95.3951 28.6211 95.2193 28.1816 95.2193 27.7128C95.6588 27.7128 96.0104 27.6249 96.1862 27.4198C96.3913 27.2147 96.4792 26.8924 96.4792 26.4236V19.626C96.4792 19.2158 96.362 18.8935 96.1276 18.747C95.8932 18.5712 95.5123 18.4833 94.9263 18.4833V17.4285C95.4537 17.1355 96.1276 16.8718 96.9773 16.6374C97.827 16.403 98.5009 16.2858 98.9697 16.2858C99.3506 16.2858 99.6143 16.4323 99.7608 16.696C99.9073 16.9597 99.9952 17.4871 99.9952 18.2782C100.288 17.7508 100.728 17.282 101.343 16.8425C101.958 16.4323 102.574 16.1979 103.218 16.1979C103.892 16.2272 104.39 16.4323 104.742 16.7839Z" fill="#004669"/>
<path d="M125.281 15.2896C125.428 16.7253 125.486 17.8973 125.486 18.835C125.281 18.9229 124.959 18.9815 124.549 19.0108C124.109 19.0694 123.728 19.0694 123.377 19.0694C123.289 17.8094 123.142 16.8718 122.908 16.1979C122.703 15.524 122.41 15.0552 122.058 14.8208C121.707 14.5571 121.238 14.4399 120.652 14.4399H120.242V26.1893C120.242 26.6288 120.447 26.9511 120.857 27.1562C121.267 27.3613 121.883 27.4492 122.732 27.4492C122.732 27.7422 122.674 28.0059 122.586 28.2696C122.498 28.5333 122.351 28.7677 122.176 28.9435H114.235C114.089 28.7677 113.942 28.5333 113.854 28.2696C113.766 28.0059 113.708 27.7422 113.708 27.4492C115.466 27.4492 116.345 27.039 116.345 26.1893V14.4692H115.817C114.177 14.4692 113.239 16.0221 112.975 19.0987C111.891 19.0401 111.188 18.9522 110.866 18.835C110.866 17.9266 110.924 16.7253 111.071 15.2896C111.217 13.8539 111.393 12.8577 111.657 12.301C112.389 12.301 113.005 12.3889 113.591 12.594H122.732C123.318 12.4182 123.963 12.301 124.666 12.301C124.959 12.887 125.135 13.8539 125.281 15.2896Z" fill="#004669"/>
<path d="M139.931 28.3281C139.375 28.8555 138.496 29.0899 137.353 29.0899C135.771 29.0899 134.98 28.5918 134.98 27.6249V20.0948C134.98 19.5967 134.833 19.2158 134.569 18.9228C134.306 18.6591 133.925 18.5126 133.456 18.5126C133.134 18.5126 132.811 18.6005 132.489 18.8056C132.167 19.0107 131.903 19.2744 131.757 19.5674V26.4236C131.757 26.8631 131.845 27.2147 132.05 27.3905C132.255 27.5956 132.577 27.6835 133.046 27.6835C133.046 28.1816 132.87 28.5918 132.518 28.9434H127.332C126.981 28.5918 126.805 28.1523 126.805 27.6835C127.274 27.6835 127.596 27.5956 127.801 27.3905C128.006 27.1854 128.094 26.8631 128.094 26.4236V13.7367C128.094 13.3558 127.977 13.0628 127.772 12.8577C127.567 12.6819 127.127 12.5647 126.541 12.5647V11.5978C127.098 11.3048 127.83 11.0411 128.68 10.8067C129.559 10.5723 130.233 10.4551 130.79 10.4551C131.141 10.4551 131.405 10.543 131.552 10.6895C131.698 10.8653 131.786 11.129 131.786 11.5099V16.1393L131.727 18.0145C132.138 17.4578 132.694 17.0183 133.339 16.6667C133.983 16.3151 134.716 16.1393 135.478 16.1393C136.562 16.1393 137.412 16.4323 137.968 17.0183C138.525 17.6043 138.818 18.454 138.818 19.5967V26.1599C138.818 26.5408 138.906 26.8631 139.111 27.0975C139.316 27.3319 139.58 27.4784 139.931 27.5663V28.3281Z" fill="#004669"/>
<path d="M142.51 23.1713C143.184 22.556 144.209 22.263 145.557 22.263C146.026 22.263 146.495 22.3216 146.993 22.4095C147.491 22.4974 147.901 22.6146 148.194 22.7904V19.6553C148.194 19.04 148.048 18.5712 147.725 18.3075C147.403 18.0438 146.993 17.8973 146.465 17.8973C145.938 17.8973 145.528 18.0145 145.205 18.2782C145.498 18.3661 145.733 18.5419 145.879 18.747C146.026 18.9814 146.114 19.2158 146.114 19.5088C146.114 20.0069 145.938 20.4171 145.586 20.7394C145.235 21.0617 144.766 21.2082 144.239 21.2082C143.653 21.2082 143.154 21.0324 142.803 20.6808C142.451 20.3292 142.275 19.8897 142.275 19.333C142.275 18.7763 142.451 18.2782 142.832 17.7801C143.213 17.282 143.77 16.9011 144.561 16.6081C145.323 16.3151 146.29 16.1686 147.432 16.1686C148.985 16.1686 150.157 16.4909 150.948 17.1062C151.739 17.7508 152.15 18.6591 152.15 19.8897V26.1013C152.15 26.8631 152.501 27.3026 153.234 27.4491V28.2109C153.029 28.5039 152.706 28.709 152.237 28.8555C151.769 29.002 151.3 29.0899 150.802 29.0899C149.747 29.0899 148.985 28.709 148.546 27.9765C148.194 28.2988 147.755 28.5625 147.227 28.7676C146.7 28.9727 146.114 29.0899 145.469 29.0899C144.297 29.0899 143.36 28.7676 142.627 28.123C141.895 27.4784 141.543 26.6287 141.543 25.6325C141.484 24.607 141.836 23.7866 142.51 23.1713ZM148.223 24.5777C148.048 24.4605 147.842 24.3726 147.608 24.2847C147.374 24.1968 147.139 24.1675 146.905 24.1675C146.465 24.1675 146.114 24.314 145.821 24.5777C145.528 24.8414 145.411 25.2516 145.411 25.7497C145.411 26.1599 145.557 26.5115 145.821 26.8045C146.114 27.0682 146.465 27.2147 146.934 27.2147C147.169 27.2147 147.403 27.1854 147.637 27.0975C147.872 27.0389 148.048 26.951 148.223 26.8338V24.5777Z" fill="#004669"/>
<path d="M168.03 28.3281C167.796 28.5625 167.386 28.7383 166.77 28.8848C166.155 29.0313 165.598 29.0899 165.042 29.0899C164.368 29.0899 163.87 28.9727 163.547 28.709C163.225 28.4453 163.078 28.0644 163.078 27.5077V20.1827C163.078 19.5674 162.932 19.1279 162.668 18.8642C162.405 18.6005 162.053 18.454 161.613 18.454C160.969 18.454 160.441 18.7177 160.002 19.2158V26.365C160.002 26.8045 160.09 27.1561 160.295 27.3612C160.5 27.5663 160.822 27.6542 161.291 27.6542C161.291 28.123 161.115 28.5332 160.764 28.8848H155.431C155.05 28.5039 154.874 28.0937 154.874 27.6542C155.343 27.6542 155.666 27.5663 155.871 27.3612C156.076 27.1561 156.164 26.8338 156.164 26.365V19.5967C156.164 19.1865 156.046 18.8642 155.812 18.6884C155.578 18.5126 155.167 18.4247 154.581 18.4247V17.3699C155.08 17.0769 155.783 16.8425 156.691 16.6081C157.599 16.3737 158.303 16.2565 158.771 16.2565C159.123 16.2565 159.416 16.3737 159.592 16.6081C159.797 16.8425 159.914 17.2527 159.943 17.8973C160.354 17.3992 160.852 16.989 161.467 16.7253C162.082 16.4323 162.756 16.2858 163.518 16.2858C164.631 16.2858 165.481 16.5788 166.008 17.1355C166.536 17.6922 166.829 18.6298 166.829 19.9483V26.3357C166.829 27.0975 167.21 27.5663 167.942 27.6835L168.03 28.3281Z" fill="#004669"/>
<path d="M179.282 29.0899C177.465 29.002 176.088 28.9727 175.209 28.9727C174.857 28.5625 174.681 28.0644 174.681 27.5077C175.209 27.5077 175.59 27.4198 175.795 27.244C176 27.0682 176.117 26.7459 176.117 26.3064V15.2896C176.117 14.8501 176 14.557 175.795 14.3519C175.59 14.1761 175.209 14.0882 174.681 14.0882C174.681 13.5315 174.857 13.0334 175.209 12.6232C176.088 12.6232 177.436 12.5939 179.252 12.5646C180.073 12.5353 180.629 12.506 180.922 12.506C183.384 12.506 185.112 12.8869 186.138 13.6487C187.163 14.4105 187.661 15.3482 187.661 16.4323C187.661 17.3406 187.427 18.1024 186.958 18.7177C186.489 19.333 185.728 19.8604 184.673 20.2999C186.05 20.5929 187.046 21.0324 187.661 21.6477C188.247 22.263 188.54 23.1713 188.54 24.4019C188.54 27.5956 186.138 29.1778 181.362 29.1778C180.776 29.1485 180.102 29.1192 179.282 29.0899ZM183.852 16.9597C183.852 16.0807 183.618 15.4068 183.149 14.9087C182.68 14.4105 181.948 14.1761 180.981 14.1761C180.541 14.1761 180.219 14.2054 180.014 14.264V19.6553C180.307 19.6846 180.541 19.7139 180.717 19.7139C182.827 19.7432 183.852 18.8056 183.852 16.9597ZM184.292 24.607C184.292 23.5229 184.028 22.7318 183.471 22.2044C182.915 21.677 182.036 21.4133 180.805 21.4133L180.043 21.4426V27.3612C180.454 27.4198 180.805 27.4198 181.04 27.4198C183.178 27.4491 184.292 26.5115 184.292 24.607Z" fill="#004669"/>
<path d="M199.762 25.6325C199.879 25.7497 199.997 25.9548 200.084 26.1892C200.172 26.4529 200.231 26.658 200.231 26.8338C200.231 27.1268 200.055 27.4491 199.674 27.8007C199.293 28.1816 198.766 28.4746 198.121 28.7383C197.447 29.002 196.715 29.1485 195.895 29.1485C194.752 29.1485 193.726 28.8848 192.847 28.3867C191.968 27.8886 191.324 27.1561 190.855 26.2185C190.386 25.2516 190.152 24.1382 190.152 22.849C190.152 21.5305 190.415 20.3585 190.914 19.3623C191.412 18.3661 192.115 17.6043 193.023 17.0476C193.902 16.5202 194.928 16.2272 196.041 16.2272C197.477 16.2272 198.59 16.6374 199.44 17.4578C200.29 18.2782 200.7 19.4209 200.7 20.9152C200.7 21.5891 200.583 22.1458 200.377 22.556C200.172 22.9662 199.762 23.142 199.205 23.142H194.137C194.224 25.3981 195.191 26.5408 197.037 26.5408C198.004 26.5701 198.912 26.2771 199.762 25.6325ZM194.635 18.6884C194.312 19.2158 194.137 20.1241 194.107 21.384H196.481C196.744 21.384 196.891 21.2961 196.979 21.1203C197.067 20.9445 197.096 20.6808 197.096 20.3292C197.096 19.4209 196.979 18.7763 196.774 18.3954C196.568 18.0438 196.246 17.868 195.895 17.868C195.367 17.868 194.986 18.161 194.635 18.6884Z" fill="#004669"/>
<path d="M203.835 13.9711C203.835 13.5902 203.718 13.2972 203.483 13.0921C203.249 12.887 202.839 12.7991 202.223 12.7991V11.8615C202.78 11.5391 203.483 11.2754 204.362 11.0703C205.212 10.8652 205.915 10.748 206.443 10.748C206.824 10.748 207.087 10.8359 207.234 10.9824C207.38 11.1289 207.468 11.4219 207.468 11.8029V26.4236C207.468 26.9217 207.556 27.244 207.761 27.4198C207.966 27.5956 208.289 27.7128 208.757 27.7128C208.757 28.1523 208.582 28.5625 208.201 28.9727H203.073C202.721 28.5918 202.546 28.1523 202.546 27.7128C202.985 27.7128 203.337 27.6249 203.542 27.4198C203.747 27.2147 203.835 26.8924 203.835 26.4236V13.9711Z" fill="#004669"/>
<path d="M215.35 18.6298V25.2516C215.35 25.7204 215.438 26.0427 215.643 26.2185C215.819 26.3943 216.082 26.4822 216.434 26.4822C216.727 26.4822 217.049 26.3943 217.372 26.2478C217.694 26.1013 217.958 25.8962 218.133 25.6618C218.28 25.779 218.397 25.9841 218.485 26.2185C218.544 26.4822 218.602 26.6873 218.602 26.8924C218.602 27.244 218.485 27.5956 218.221 27.9472C217.958 28.2988 217.606 28.5625 217.108 28.7969C216.61 29.002 215.994 29.1192 215.291 29.1192C214.207 29.1192 213.328 28.7969 212.654 28.1816C211.98 27.5663 211.658 26.5115 211.658 25.0758V18.6298H210.193V17.1941C210.603 17.1355 210.984 16.8718 211.365 16.403C211.746 15.9342 212.068 15.3774 212.361 14.6742C212.625 13.971 212.801 13.2971 212.889 12.5939C213.182 12.5353 213.416 12.5353 213.65 12.5353C214.207 12.5353 214.617 12.6818 214.91 13.0041C215.174 13.3264 215.321 13.678 215.321 14.0589V16.5202H218.045C218.045 16.989 218.016 17.3992 217.987 17.7215C217.928 18.0438 217.84 18.3368 217.694 18.6005H215.35V18.6298Z" fill="#004669"/>
<path d="M222.47 28.8555C221.708 28.6211 221.093 28.2988 220.595 27.8886C220.096 27.4784 219.862 26.9803 219.862 26.3943C219.862 25.8376 220.009 25.3981 220.331 25.0758C220.653 24.7535 221.034 24.5777 221.532 24.5777C221.972 24.5777 222.353 24.7242 222.646 24.9879C222.939 25.2516 223.114 25.6325 223.114 26.1013C223.114 26.3064 223.085 26.4822 223.026 26.6287C222.968 26.7752 222.88 26.951 222.733 27.0975C222.851 27.2147 223.085 27.3319 223.437 27.3905C223.788 27.4491 224.14 27.5077 224.55 27.5077C225.077 27.5077 225.488 27.4198 225.81 27.2147C226.103 27.0096 226.279 26.7752 226.279 26.4529C226.279 26.0427 226.074 25.6618 225.693 25.3688C225.312 25.0758 224.667 24.6949 223.818 24.2261C222.939 23.7573 222.265 23.3764 221.825 23.0541C221.386 22.7611 220.975 22.3216 220.624 21.8235C220.272 21.2961 220.096 20.6515 220.096 19.8897C220.096 18.8349 220.536 17.9559 221.415 17.3113C222.294 16.6667 223.495 16.3151 225.048 16.3151C226.572 16.3151 227.685 16.5788 228.447 17.1355C229.209 17.6922 229.56 18.3075 229.56 19.0693C229.56 19.5381 229.414 19.919 229.092 20.212C228.799 20.505 228.418 20.6515 227.978 20.6515C227.568 20.6515 227.216 20.5343 226.923 20.2999C226.63 20.0655 226.484 19.7432 226.484 19.3623C226.484 19.1572 226.513 18.9521 226.572 18.747C226.63 18.5419 226.718 18.3661 226.835 18.2196C226.513 17.9559 226.044 17.8387 225.429 17.8387C224.931 17.8387 224.55 17.9559 224.257 18.1903C223.964 18.4247 223.847 18.7177 223.847 19.0693C223.847 19.5674 224.052 19.9483 224.433 20.2706C224.814 20.5929 225.458 20.9445 226.308 21.384C227.128 21.7942 227.773 22.1751 228.242 22.4974C228.711 22.8197 229.121 23.2299 229.472 23.728C229.824 24.2554 230 24.8707 230 25.6325C230 26.8631 229.502 27.7421 228.506 28.3281C227.509 28.9141 226.279 29.2071 224.814 29.2071C223.993 29.2071 223.232 29.0899 222.47 28.8555Z" fill="#004669"/>
</svg>
