<svg width="112" height="111" viewBox="0 0 112 111" fill="none" xmlns="http://www.w3.org/2000/svg">
<path d="M111.097 55.0057C110.86 70.0664 106.018 82.9135 95.9378 93.5469C85.0475 105.05 71.5482 110.92 55.6969 110.999C40.8734 111.078 27.9275 105.92 17.1953 95.6617C5.79107 84.7516 0.0197765 71.2325 1.1794e-05 55.4405C-0.0197529 24.825 24.8047 -0.137781 55.7562 0.000572339C70.0461 0.0598664 82.5967 4.96151 93.0917 14.666C104.951 25.6156 110.742 39.3521 111.097 55.0057ZM55.8748 108.548C70.1449 108.311 82.656 103.39 92.9138 93.2504C103.152 83.1309 108.508 70.7384 108.706 56.3102C108.903 40.8542 103.211 27.77 92.143 16.9784C82.0235 7.68904 70.1449 2.68857 56.3689 2.56998C40.9129 2.43163 27.7496 8.0448 17.136 19.2514C7.66871 29.2523 2.84613 41.3088 2.76707 55.065C2.68801 70.3234 8.22213 83.3878 19.2706 93.9224C29.4296 103.607 41.7035 108.331 55.8748 108.548Z" fill="#F9F9FE"/>
<path d="M30.3389 52.2584C30.3389 57.8123 30.3389 63.3662 30.3389 68.92C30.3389 69.928 30.4772 70.9163 30.9516 71.8255C31.5445 72.9718 32.4537 73.6043 33.7977 73.6043C34.7859 73.6043 35.6556 73.3869 36.3078 72.5963C36.7229 72.1022 36.9798 71.5092 37.1379 70.8965C37.3356 70.1455 37.4146 69.3944 37.4146 68.6236C37.4146 57.5553 37.4146 46.5069 37.4146 35.4386C37.4146 34.8457 37.3751 34.9445 37.9087 34.9445C39.8062 34.9445 41.7036 34.9445 43.601 34.9445C43.9567 34.9445 43.9567 34.9445 43.9567 35.3201C43.9567 46.4476 43.9765 57.5751 43.937 68.7224C43.937 71.529 42.5732 73.6438 40.1224 75.0471C38.8179 75.7982 37.4146 76.1737 35.9125 76.2725C34.193 76.3911 32.4735 76.4109 30.7737 76.1539C28.9158 75.8575 27.2753 75.1064 25.9116 73.7822C24.5083 72.4184 23.8165 70.6989 23.8165 68.7422C23.7968 57.5949 23.8165 46.4476 23.7968 35.3003C23.7968 35.0434 23.856 34.9643 24.1328 34.9643C26.0697 34.9841 28.0066 34.9643 29.9436 34.9643C30.3389 34.9643 30.3389 34.9643 30.3389 35.3596C30.3389 40.9728 30.3389 46.6255 30.3389 52.2584Z" fill="#F9F9FE"/>
<path d="M84.2569 55.3812C84.2569 48.76 84.2569 42.1389 84.2569 35.5177C84.2569 35.4386 84.2569 35.3596 84.2569 35.2805C84.2569 35.1422 84.3162 35.0631 84.4743 35.0631C84.5138 35.0631 84.5731 35.0631 84.6127 35.0631C86.8461 35.0631 89.0993 35.0433 91.3327 35.0631C93.823 35.1026 96.2738 35.4189 98.6258 36.2688C99.792 36.6838 100.879 37.2372 101.808 38.0673C102.974 39.1149 103.626 40.3798 103.626 41.9807C103.626 50.9144 103.607 59.848 103.626 68.7817C103.626 70.9953 102.678 72.5963 100.82 73.7031C99.5152 74.4937 98.0724 74.9285 96.6098 75.2447C94.9694 75.5807 93.3091 75.7191 91.6489 75.7388C89.3562 75.7586 87.0833 75.7388 84.7905 75.7388C84.2569 75.7388 84.2569 75.8377 84.2569 75.2052C84.2569 68.6236 84.2569 62.0024 84.2569 55.3812ZM90.72 55.3812C90.72 56.9822 90.72 58.5831 90.72 60.184C90.72 64.6113 90.72 69.0386 90.72 73.4659C90.72 73.8217 90.72 73.8217 91.0757 73.8217C91.7872 73.8217 92.4988 73.7229 93.1708 73.5252C94.3764 73.1694 95.4437 72.5963 96.2343 71.5883C96.9261 70.7186 97.183 69.7304 97.183 68.6433C97.183 60.1643 97.183 51.6655 97.183 43.1864C97.183 42.6132 97.1632 42.0203 97.1435 41.4471C97.0644 39.6485 96.1552 38.4033 94.5345 37.6523C93.4475 37.1582 92.2814 37.0198 91.0955 36.9605C90.7002 36.9408 90.7002 36.9408 90.7002 37.3558C90.72 43.3643 90.72 49.3727 90.72 55.3812Z" fill="#F9F9FE"/>
<path d="M55.0249 55.3812C55.0249 59.9271 55.0249 64.4927 55.0249 69.0386C55.0249 70.1652 55.2028 71.2325 55.8155 72.2009C56.4084 73.1299 57.2583 73.6438 58.3849 73.6438C59.0767 73.6438 59.7487 73.6042 60.3614 73.2089C61.0334 72.7544 61.4287 72.1021 61.7054 71.3708C61.9821 70.6 62.1007 69.8094 62.1007 68.9793C62.1007 65.6786 62.1007 62.3779 62.1007 59.0969C62.1007 58.6226 62.1007 58.6226 62.575 58.6226C64.4329 58.6226 66.3106 58.6226 68.1684 58.6226C68.6033 58.6226 68.6033 58.6226 68.6033 59.0772C68.6033 62.2791 68.6428 65.4809 68.5835 68.7026C68.544 71.4894 67.3186 73.624 64.8875 75.0273C63.5435 75.7981 62.1007 76.2132 60.559 76.2922C58.8988 76.3911 57.2188 76.4503 55.5783 76.1736C53.2659 75.7981 51.3091 74.7901 49.8861 72.8927C49.0955 71.8649 48.7595 70.6593 48.6014 69.3944C48.5421 68.9398 48.5619 68.4852 48.5619 68.0306C48.5619 59.4132 48.5421 50.7958 48.5816 42.1784C48.6014 38.9567 50.1826 36.6838 53.088 35.32C54.3727 34.7073 55.7562 34.4504 57.1595 34.4108C58.8197 34.3516 60.48 34.312 62.1204 34.6678C64.2748 35.1421 66.1129 36.1501 67.3976 37.9883C68.1882 39.1346 68.6033 40.4391 68.6428 41.8424C68.6823 43.8781 68.6428 45.9139 68.6626 47.9299C68.6626 48.1671 68.6033 48.2461 68.3463 48.2461C66.3698 48.2461 64.4131 48.2461 62.4367 48.2461C62.16 48.2461 62.1402 48.1078 62.1402 47.8904C62.1402 45.8744 62.1402 43.8386 62.1402 41.8226C62.1402 40.7553 62.0019 39.7275 61.567 38.7393C61.2113 37.8894 60.5788 37.3755 59.6696 37.2372C58.7604 37.0988 57.8513 37.0988 56.9619 37.3755C56.3294 37.593 55.8946 38.008 55.6376 38.6207C55.2226 39.6287 55.0842 40.696 55.0842 41.7633C55.0249 46.329 55.0249 50.8551 55.0249 55.3812Z" fill="#F9F9FE"/>
<path d="M7.35245 55.401C7.35245 48.7798 7.35245 42.1388 7.35245 35.5177C7.35245 35.4386 7.35245 35.3793 7.35245 35.3003C7.33269 35.0829 7.43151 35.0038 7.64892 35.0236C7.68845 35.0236 7.74775 35.0236 7.78728 35.0236C9.66492 35.0236 11.5426 35.0236 13.4202 35.0236C13.855 35.0236 13.855 35.0236 13.855 35.4584C13.855 47.0207 13.855 58.5831 13.855 70.1652C13.855 70.7186 13.8946 71.272 14.112 71.8057C14.3294 72.3393 14.7049 72.7148 15.2188 72.952C15.9896 73.288 16.8197 73.3868 17.6499 73.4461C18.6776 73.5252 19.7054 73.5252 20.7332 73.5252C21.0099 73.5252 21.1087 73.6042 21.0889 73.8809C21.0692 74.3751 21.0889 74.8889 21.0889 75.3831C21.0889 75.7784 21.0889 75.7784 20.6936 75.7784C18.3416 75.7784 15.9699 75.7784 13.6179 75.7784C11.6612 75.7784 9.70445 75.7784 7.74775 75.7784C7.39198 75.7784 7.39198 75.7784 7.39198 75.4226C7.35245 68.7421 7.35245 62.0617 7.35245 55.401Z" fill="#F9F9FE"/>
<path d="M79.6715 55.3418C79.6715 62.0025 79.6715 68.6632 79.6715 75.3239C79.6715 75.7587 79.6715 75.7587 79.2367 75.7587C77.3393 75.7587 75.4419 75.7587 73.5445 75.7587C73.1492 75.7587 73.1492 75.7587 73.1492 75.3634C73.1492 72.201 73.1492 69.0387 73.1492 65.8763C73.1492 55.7568 73.1492 45.6175 73.1492 35.498C73.1492 34.9644 73.1492 34.9644 73.6828 34.9644C75.5209 34.9644 77.3393 34.9644 79.1774 34.9644C79.6518 34.9644 79.6518 34.9644 79.6518 35.4387C79.6715 42.0796 79.6715 48.7206 79.6715 55.3418Z" fill="#F9F9FE"/>
</svg>
