<svg width="440" height="40" viewBox="0 0 440 40" fill="none" xmlns="http://www.w3.org/2000/svg">
<g clip-path="url(#clip0)">
<path d="M30.0992 3.41898C32.6672 4.10817 34.1539 5.47303 34.1539 10.7433V26.8244L11.0287 3.41898C9.77177 2.14871 9.24466 2.06763 8.46076 2.06763H0V3.41898C1.86515 3.59465 2.81124 4.25682 5.05483 6.31087C5.8928 6.95952 6.39287 7.95952 6.40639 9.01357V27.1082C6.40639 32.4325 4.91967 33.7838 2.35171 34.4865V35.8379H13.2182V34.4865C10.6503 33.7838 9.16357 32.4325 9.16357 27.1082V10.0406L35.1405 36.1217H37.0057V10.7433C37.0057 5.47303 38.4924 4.10817 41.0604 3.41898V2.06763H30.0992V3.41898Z" fill="#F9F9FE"/>
<path d="M56.4817 33.2162C52.3189 33.2162 49.9807 30.0405 49.1427 25.9324L62.6583 21.4459C62.415 16.6892 58.8604 13.9865 54.4273 13.9865C48.3858 14 43.5067 18.9189 43.5202 24.9459C43.5202 25.081 43.5202 25.2162 43.5337 25.3513C43.5337 31.5675 47.5073 36.3243 54.5219 36.3243C57.9413 36.5405 61.1986 34.7837 62.888 31.7973L61.6716 30.8513C60.3741 32.3648 58.482 33.2297 56.4817 33.2162ZM48.7778 22.4054C48.7778 18.581 50.2645 16.3783 53.3055 16.3783C55.3599 16.3783 56.6709 17.8783 57.225 20.7702L48.8183 23.6756C48.8183 23.6756 48.7778 23.1351 48.7778 22.3783V22.4054Z" fill="#F9F9FE"/>
<path d="M89.7435 15.7432C92.4466 16.3108 92.9737 17.8513 91.9465 20.9324L89.4191 28.4594L83.7156 15.5135H81.3774L75.863 28.554L72.7814 19.581C72.0381 17.4324 72.2679 16.2162 74.9845 15.8919V14.5405H63.5233V15.8919C65.064 16.2162 65.7263 16.8243 66.6048 19.3378L72.7814 36.1216H75.2007L80.9584 22.9864L86.8377 36.1216H89.2705L94.7848 20.3783C95.9472 17.0135 96.5148 16.1621 98.38 15.7432V14.4865H89.7435V15.7432Z" fill="#F9F9FE"/>
<path d="M109.733 22.7162C106.557 21.6351 104.327 20.9864 104.327 18.6621C104.367 17.2567 105.543 16.1351 106.949 16.1756C107.016 16.1756 107.071 16.1756 107.138 16.1892C109.463 16.1892 111.477 17.5405 113.896 20.3378L115.112 19.8243L113.382 14.2162H112.639L111.842 14.8783C110.49 14.3108 109.044 14.0135 107.584 13.9865C102.813 13.9865 99.691 16.6892 99.691 20.9054C99.691 25.1216 103.151 26.3108 106.449 27.4054C109.747 28.5 111.855 29.1351 111.855 31.4594C111.855 32.9594 110.733 34.081 108.53 34.081C105.543 34.081 103.205 32.1081 100.421 28.5675L99.2044 29.027L100.988 36.081H101.732L103.083 35.1486C104.638 35.8919 106.354 36.2837 108.084 36.2702C112.666 36.2702 116.491 33.5675 116.491 29.1621C116.491 24.7567 113.004 23.7432 109.733 22.7162Z" fill="#F9F9FE"/>
<path d="M141.13 0C128.75 0 120.1 10.0405 120.1 21.7297C120.1 32.5405 127.912 40 139.4 40C144.171 40.1081 148.807 38.4324 152.388 35.2838L151.321 33.9324C147.969 36.6892 143.738 38.1757 139.4 38.1351C129.114 38.1351 122.154 31.3784 122.154 21.6892C122.154 10.8784 129.912 1.78378 141.076 1.78378C151.375 1.82432 156.781 7.22973 156.781 15.3378C156.781 23.1892 153.267 26.8243 150.28 26.8243C147.847 26.8243 147.198 25.7973 147.577 23.6486L150.091 9.40541H148.672L147.077 10.2838C145.522 9.71622 143.887 9.41892 142.225 9.40541C135.115 9.25676 129.236 14.9189 129.087 22.027C129.087 22.0676 129.087 22.1216 129.087 22.1622C129.087 26.2162 131.561 29.6757 135.845 29.6757C138.832 29.7162 141.549 27.9865 142.806 25.2838C143.319 27.3919 145.144 29.2162 148.969 29.2162C152.794 29.2162 158.835 25.3784 158.835 15.1892C158.889 6.17567 152.632 0 141.13 0ZM142.806 20.9865C142.116 24.9459 140.332 26.3919 137.954 26.3919C135.575 26.3919 134.21 24.9054 134.21 21.9595C134.21 17.3378 136.129 11.7703 140.143 11.7703C141.603 11.7568 143.036 12.2297 144.198 13.1216L142.806 20.9865Z" fill="#F9F9FE"/>
<path d="M191.638 3.41898C194.206 4.10817 195.692 5.47303 195.692 10.7433V26.8244L172.567 3.41898C171.31 2.14871 170.783 2.06763 169.999 2.06763H161.538V3.41898C163.403 3.59465 164.336 4.25682 166.58 6.31087C167.418 6.95952 167.918 7.946 167.931 9.01357V27.1082C167.931 32.4325 166.431 33.7838 163.877 34.4865V35.8379H174.811V34.4865C172.243 33.7838 170.756 32.4325 170.756 27.1082V10.0406L196.679 36.1217H198.558V10.7433C198.558 5.47303 200.044 4.10817 202.612 3.41898V2.06763H191.678L191.638 3.41898Z" fill="#F9F9FE"/>
<path d="M216.763 13.9865C210.613 13.6757 205.396 18.4054 205.086 24.554C205.072 24.8513 205.072 25.1486 205.072 25.4459C205.072 31.3243 209.046 36.3243 216.29 36.3243C222.453 36.6351 227.697 31.9054 228.008 25.7432C228.022 25.4594 228.022 25.1621 228.022 24.8784C228.022 18.973 224.048 13.9865 216.763 13.9865ZM216.898 34.0811C212.087 34.0811 210.735 28.2432 210.735 22.8648C210.735 18.8108 212.452 16.1892 216.141 16.1892C220.912 16.1892 222.318 22.0811 222.318 27.4459C222.372 31.554 220.588 34.1081 216.898 34.1081V34.0811Z" fill="#F9F9FE"/>
<path d="M245.065 13.7837C242.821 13.7837 241.145 15.6081 239.51 18.1756V13.6891H237.496L231.117 18.0405V19.027H234.158V31.081C234.158 33.554 233.725 34.1621 231.117 34.5405V35.8919H243.281V34.5405C240.199 34.0675 239.78 33.4594 239.78 30.6621V21.3513C240.469 19.9864 241.375 18.7567 242.483 17.7027C242.389 19.1891 243.524 20.4729 245.024 20.5675C245.078 20.5675 245.132 20.5675 245.186 20.5675C246.943 20.5 248.308 19.027 248.241 17.2702C248.241 17.1891 248.227 17.0946 248.214 17.0135C248.403 15.4324 247.281 13.9864 245.7 13.7973C245.484 13.7702 245.281 13.7702 245.065 13.7837Z" fill="#F9F9FE"/>
<path d="M260.851 33.2162C258.756 33.2162 258.148 32.1487 258.148 30.6487V17.0541H263.892V14.4865H258.148V10.2838H257.364L249.255 15.6081V17.0541H252.525V31.8244C252.525 34.7703 254.161 36.3514 257.485 36.3514C260.121 36.3244 262.675 35.4325 264.77 33.8244L264.068 32.473C263.054 32.9325 261.959 33.1757 260.851 33.2162Z" fill="#F9F9FE"/>
<path d="M289.125 31.027V20.2162C289.125 16.6216 287.625 14.0405 283.043 14.0405C280.34 14.0405 277.529 15.7297 274.934 17.973V0H273.258L265.987 4.77027V5.74324H269.258V31.027C269.258 33.5 268.839 34.1081 266.23 34.4865V35.8378H277.908V34.4865C275.204 34.1081 274.867 33.5 274.867 31.027V20.5676C277.07 18.5541 278.705 17.527 280.665 17.527C282.854 17.527 283.517 18.6892 283.517 20.7027V31.027C283.517 33.5 283.098 34.1081 280.476 34.4865V35.8378H292.153V34.4865C289.544 34.1081 289.125 33.5 289.125 31.027Z" fill="#F9F9FE"/>
<path d="M307.426 33.2163C303.276 33.2163 300.938 30.0406 300.087 25.9325L313.602 21.446C313.318 16.6352 309.777 14.0135 305.331 14.0135C299.303 14.0271 294.424 18.9325 294.437 24.9595C294.437 25.0946 294.437 25.2298 294.451 25.3784C294.451 31.5946 298.411 36.3514 305.425 36.3514C308.845 36.5676 312.102 34.8108 313.791 31.8244L312.575 30.8784C311.278 32.3784 309.399 33.2298 307.426 33.2163ZM299.722 22.4054C299.722 18.5811 301.208 16.3784 304.249 16.3784C306.304 16.3784 307.615 17.8784 308.183 20.7703L299.762 23.6757C299.762 23.6757 299.722 23.1352 299.722 22.3784V22.4054Z" fill="#F9F9FE"/>
<path d="M333.267 31.6352V19.5811C333.267 15.9865 331.673 14.0135 326.51 14.0135C320.765 14.0135 316.562 17.1081 316.562 20C316.495 21.3514 317.535 22.5 318.887 22.5676C318.968 22.5676 319.049 22.5676 319.13 22.5676C320.82 22.6487 322.252 21.3379 322.333 19.6352C322.333 19.5541 322.333 19.473 322.333 19.3919C322.374 18.5406 322.036 17.7163 321.401 17.1487C322.455 16.5946 323.617 16.3108 324.807 16.2973C326.766 16.2973 327.699 17 327.699 18.7838V23.2703C319.671 25.2703 315.927 27.0541 315.927 31.2973C315.927 34.6217 318.035 36.3919 321.401 36.3919C323.82 36.2838 326.145 35.3919 328.023 33.8649C328.321 35.3919 329.767 36.419 331.308 36.2027C333.254 36.0946 335.119 35.446 336.714 34.3379L336.295 33.0811C334.065 33.4595 333.267 33.1352 333.267 31.6352ZM327.699 31.8244C326.726 32.6892 325.496 33.2027 324.198 33.2703C322.428 33.2703 321.401 32.3379 321.401 30.0946C321.401 27.8514 322.428 26.7298 327.699 25.2838V31.8244Z" fill="#F9F9FE"/>
<path d="M348.702 22.7162C345.512 21.6351 343.296 20.9865 343.296 18.6622C343.336 17.2568 344.512 16.1351 345.918 16.1757C345.986 16.1757 346.04 16.1757 346.107 16.1892C348.445 16.1892 350.446 17.5406 352.865 20.3378L354.081 19.8243L352.351 14.2162H351.608L350.811 14.8784C349.459 14.3243 348.026 14.0406 346.567 14.027C341.796 14.027 338.66 16.7297 338.66 20.946C338.66 25.1622 342.12 26.3514 345.418 27.446C348.716 28.5406 350.824 29.1757 350.824 31.5C350.824 33 349.702 34.1216 347.513 34.1216C344.512 34.1216 342.188 32.1487 339.403 28.6081L338.201 29.0676L339.971 36.1216H340.714L342.066 35.1892C343.62 35.946 345.337 36.3243 347.067 36.3108C351.635 36.3108 355.473 33.6081 355.473 29.2027C355.473 24.7973 352 23.7433 348.702 22.7162Z" fill="#F9F9FE"/>
<path d="M368.53 33.2162C366.435 33.2162 365.826 32.1487 365.826 30.6487V17.0541H371.679V14.4865H365.867V10.2838H365.07L356.96 15.6081V17.0541H360.231V31.8244C360.231 34.7703 361.866 36.3514 365.191 36.3514C367.827 36.3244 370.381 35.4325 372.476 33.8244L371.773 32.473C370.746 32.9325 369.651 33.1892 368.53 33.2162Z" fill="#F9F9FE"/>
<path d="M387.073 33.2163C382.924 33.2163 380.585 30.0406 379.734 25.9325L393.25 21.446C392.966 16.6352 389.425 14.0135 384.978 14.0135C378.95 14.0271 374.071 18.9325 374.085 24.9595C374.085 25.0946 374.085 25.2298 374.098 25.3784C374.098 31.5946 378.072 36.3514 385.073 36.3514C388.492 36.5676 391.749 34.8108 393.439 31.8244L392.222 30.8784C390.925 32.3784 389.046 33.2298 387.073 33.2163ZM379.369 22.4054C379.369 18.5811 380.856 16.3784 383.897 16.3784C385.951 16.3784 387.262 17.8784 387.83 20.7703L379.41 23.6757C379.41 23.6757 379.369 23.1352 379.369 22.3784V22.4054Z" fill="#F9F9FE"/>
<path d="M409.82 13.7837C407.59 13.7837 405.9 15.6081 404.265 18.1756V13.6891H402.251L395.804 18.0405V19.027H398.845V31.081C398.845 33.554 398.426 34.1621 395.804 34.5405V35.8919H407.968V34.5405C404.886 34.0675 404.468 33.4594 404.468 30.6621V21.3513C405.157 19.9864 406.076 18.7567 407.171 17.7027C407.076 19.1891 408.211 20.4729 409.712 20.5675C409.766 20.5675 409.82 20.5675 409.874 20.5675C411.631 20.5 413.009 19.0135 412.928 17.2567C412.928 17.1756 412.915 17.0946 412.915 17.0135C413.104 15.4324 411.982 13.9864 410.387 13.7973C410.198 13.7702 410.009 13.7702 409.82 13.7837Z" fill="#F9F9FE"/>
<path d="M436.973 31.027V20.2162C436.973 16.6216 435.432 14.0405 430.891 14.0405C428.093 14.0405 425.336 15.7297 422.619 18.0135V13.6891H420.524L414.077 18.0405V19.027H417.105V31.081C417.105 33.554 416.686 34.1621 414.077 34.5405V35.8919H425.741V34.5405C423.119 34.1621 422.7 33.554 422.7 31.081V20.5675C424.944 18.554 426.863 17.527 428.458 17.527C430.742 17.527 431.35 18.6891 431.35 20.7027V31.027C431.35 33.5 430.931 34.1081 428.309 34.4864V35.8378H440V34.4864C437.392 34.1081 436.973 33.5 436.973 31.027Z" fill="#F9F9FE"/>
</g>
<defs>
<clipPath id="clip0">
<rect width="440" height="40" fill="white"/>
</clipPath>
</defs>
</svg>
