<svg width="441" height="65" viewBox="0 0 441 65" fill="none" xmlns="http://www.w3.org/2000/svg">
<path d="M24.6329 4.40043C22.1457 4.11345 20.2803 4.06562 17.4104 4.06562H0V50.2702H12.0534V34.0555H17.4104C20.2803 34.0555 22.1457 34.0077 24.6329 33.7207C31.3292 32.9076 37.4515 28.1723 37.4515 19.0845C37.4515 9.94881 31.3292 5.21356 24.6329 4.40043ZM19.9454 24.6329C19.0845 24.6807 18.0322 24.6807 16.7408 24.6807H12.0534V13.4405H16.7408C18.0322 13.4405 19.0845 13.4405 19.9454 13.4883C23.0544 13.7753 24.8242 15.5928 24.8242 19.0845C24.8242 22.5283 23.0544 24.3459 19.9454 24.6329ZM62.9932 13.5839C60.7451 13.5839 57.9231 14.5884 55.962 16.7408L53.427 21.763V14.4927H41.3736V50.2702H53.427V37.1645C53.427 26.3548 56.7273 23.0066 65.7674 23.6284V13.7753C64.9064 13.6318 64.1411 13.5839 62.9932 13.5839ZM86.7172 13.5839C74.9987 13.5839 67.4893 20.8542 67.4893 32.3815C67.4893 43.8608 74.9987 51.2268 86.7172 51.2268C98.4358 51.2268 105.945 43.8608 105.945 32.3815C105.945 20.8542 98.4358 13.5839 86.7172 13.5839ZM86.7172 43.0477C82.4125 43.0477 79.8296 39.5082 79.8296 32.3815C79.8296 25.2068 82.4125 21.763 86.7172 21.763C91.022 21.763 93.6049 25.2068 93.6049 32.3815C93.6049 39.5082 91.022 43.0477 86.7172 43.0477ZM117.042 0C112.785 0 110.824 1.72191 110.824 5.88319C110.824 10.0445 112.785 11.7664 117.042 11.7664C121.347 11.7664 123.26 10.0445 123.26 5.88319C123.26 1.72191 121.347 0 117.042 0ZM123.069 14.4927H111.015V49.2657C111.015 50.2702 110.967 51.5616 110.872 52.4704C110.537 55.6272 108.528 56.3447 104.175 55.962V64.0454C105.419 64.2846 106.806 64.3324 108.193 64.3324C118.573 64.3324 122.495 60.1711 122.925 53.4748C123.021 52.2791 123.069 50.5572 123.069 49.2179V14.4927ZM165.064 31.9031C165.064 22.6718 159.037 13.5839 147.128 13.5839C135.218 13.5839 128.043 22.0978 128.043 32.5249C128.043 45.1044 136.222 51.2268 146.458 51.2268C155.641 51.2268 162.338 46.635 164.394 38.5516H152.532C152.054 41.278 149.997 43.0477 146.601 43.0477C143.158 43.0477 140.575 41.3736 139.953 35.3948H164.873C165.016 34.199 165.064 33.0033 165.064 31.9031ZM146.506 21.763C149.71 21.763 151.815 23.8197 152.485 28.0288H140.336C141.149 23.6284 143.349 21.763 146.506 21.763ZM187.114 13.5839C176.591 13.5839 168.269 20.4716 168.269 32.8119C168.269 44.5783 176.065 51.2268 186.301 51.2268C196.011 51.2268 203.185 46.3959 204.524 37.1645H192.662C191.993 41.0388 189.697 43.0477 186.971 43.0477C182.857 43.0477 180.609 39.6996 180.609 32.0466C180.609 25.159 182.809 21.763 186.827 21.763C189.84 21.763 192.184 23.4849 192.71 28.1723H204.381C204.046 20.1368 197.589 13.5839 187.114 13.5839ZM224.039 22.2892H231.979V14.7797H224.039V5.54837H211.986V14.7797H206.294V22.2892H211.986V37.2124C211.986 39.2213 211.986 40.8953 212.13 42.9521C212.56 48.4526 215.239 51.2268 224.135 51.2268C226.67 51.2268 228.87 50.9876 231.214 50.605V43.0956C225.522 43.3825 224.374 42.5694 224.135 38.9343C224.039 38.0255 224.039 36.6862 224.039 35.4905V22.2892ZM292.485 4.06562H280.432V22.9588H261.969V4.06562H249.916V50.2702H261.969V32.3336H280.432V50.2702H292.485V4.06562ZM320.706 50.2702H332.472C331.946 46.3002 331.802 43.9087 331.802 41.2301V31.1857C331.802 28.9855 331.754 26.8809 331.611 25.1112C331.085 18.6062 327.163 13.5839 315.875 13.5839C306.835 13.5839 299.373 18.3192 299.325 26.6896L310.709 26.6418C310.9 23.5328 312.526 21.763 315.348 21.763C317.931 21.763 319.414 23.3414 319.605 25.159C319.749 26.3069 319.749 27.0244 319.749 27.7897V28.3158H317.453C305.352 28.3158 298.129 33.0032 298.129 40.6083C298.129 47.5438 303.678 51.2268 309.561 51.2268C312.861 51.2268 315.875 50.4137 318.41 48.7874L319.892 45.0566L320.706 50.2702ZM314.535 43.0477C312.096 43.0477 310.422 41.8519 310.422 39.6996C310.422 36.1601 314.344 34.7252 319.749 35.1556V37.4993C319.749 41.2301 316.927 43.0477 314.535 43.0477ZM353.517 22.2892H361.41V14.7797H353.517V5.54837H341.464V14.7797H335.772V22.2892H341.464V37.2124C341.464 39.2213 341.464 40.8953 341.56 42.9521C341.99 48.4526 344.669 51.2268 353.565 51.2268C356.1 51.2268 358.301 50.9876 360.644 50.605V43.0956C354.952 43.3825 353.852 42.5694 353.565 38.9343C353.517 38.0255 353.517 36.6862 353.517 35.4905V22.2892ZM382.216 13.5839C371.693 13.5839 363.418 20.4716 363.418 32.8119C363.418 44.5783 371.167 51.2268 381.403 51.2268C391.113 51.2268 398.287 46.3959 399.626 37.1645H387.764C387.095 41.0388 384.847 43.0477 382.072 43.0477C378.007 43.0477 375.711 39.6996 375.711 32.0466C375.711 25.159 377.959 21.763 381.977 21.763C384.99 21.763 387.334 23.4849 387.86 28.1723H399.483C399.148 20.1368 392.739 13.5839 382.216 13.5839ZM440.665 23.2936C439.756 17.0756 435.404 13.5839 428.038 13.5839C424.738 13.5839 422.203 14.3014 420.002 15.6407L416.798 20.0889V0.717462H404.744V50.2702H416.798V33.3859C416.798 25.3025 419.38 21.763 423.063 21.763C426.699 21.763 428.564 23.7719 428.851 27.1679C428.947 28.9855 428.947 30.8987 428.947 32.0466V50.2702H441V30.0377C441 27.1679 440.952 25.1112 440.665 23.2936Z" fill="#F9F9FE"/>
</svg>
