<svg width="59" height="59" viewBox="0 0 59 59" fill="none" xmlns="http://www.w3.org/2000/svg">
<path fill-rule="evenodd" clip-rule="evenodd" d="M29.2778 0C13.1695 0 0.111145 13.0584 0.111145 29.1667C0.111145 45.275 13.1695 58.3333 29.2778 58.3333C45.3861 58.3333 58.4445 45.275 58.4445 29.1667C58.4445 13.0584 45.3861 0 29.2778 0ZM28.4656 24.7162L28.4044 23.707C28.2207 21.0912 29.8325 18.702 32.3826 17.7752C33.3211 17.4456 34.9124 17.4044 35.9529 17.6928C36.3609 17.8163 37.1362 18.2283 37.687 18.599L38.6867 19.2787L39.7884 18.9286C40.4004 18.7432 41.2165 18.4342 41.5837 18.2283C41.9305 18.0429 42.2366 17.9399 42.2366 18.0017C42.2366 18.3519 41.4817 19.5465 40.8493 20.2056C39.9924 21.1324 40.2372 21.2148 41.9713 20.5969C43.0118 20.2467 43.0322 20.2467 42.8282 20.6381C42.7058 20.844 42.0733 21.5649 41.4001 22.224C40.2576 23.3568 40.1964 23.4804 40.1964 24.4279C40.1964 25.8902 39.5028 28.9385 38.8091 30.6068C37.5238 33.7375 34.7696 36.9712 32.0154 38.5983C28.1391 40.8845 22.9776 41.4612 18.632 40.1224C17.1835 39.6693 14.6946 38.5159 14.6946 38.3099C14.6946 38.2482 15.4494 38.1658 16.3675 38.1452C18.2852 38.104 20.203 37.5685 21.8351 36.621L22.9368 35.9619L21.6719 35.5294C19.8765 34.9115 18.2648 33.4903 17.8568 32.1516C17.7344 31.719 17.7752 31.6984 18.9177 31.6984L20.1009 31.6778L19.1013 31.2041C17.918 30.6068 16.8367 29.5976 16.3063 28.5678C15.9186 27.8263 15.429 25.952 15.5718 25.8078C15.6126 25.746 16.0411 25.8696 16.5307 26.0344C17.9384 26.5493 18.122 26.4257 17.3059 25.5607C15.7758 23.9953 15.3066 21.6679 16.0411 19.4641L16.3879 18.4754L17.7344 19.8142C20.4886 22.5124 23.7324 24.1189 27.4455 24.5926L28.4656 24.7162Z" fill="#F9F9FE"/>
</svg>
