<svg width="59" height="59" viewBox="0 0 59 59" fill="none" xmlns="http://www.w3.org/2000/svg">
<path fill-rule="evenodd" clip-rule="evenodd" d="M29.8333 0C13.725 0 0.666626 13.0584 0.666626 29.1667C0.666626 45.275 13.725 58.3333 29.8333 58.3333C45.9416 58.3333 59 45.275 59 29.1667C59 13.0584 45.9416 0 29.8333 0ZM41.9881 19.1399C43.3267 19.5072 44.381 20.5896 44.7387 21.964C45.3889 24.4551 45.3889 29.6528 45.3889 29.6528C45.3889 29.6528 45.3889 34.8504 44.7387 37.3416C44.381 38.7161 43.3267 39.7985 41.9881 40.166C39.5621 40.8334 29.8333 40.8334 29.8333 40.8334C29.8333 40.8334 20.1046 40.8334 17.6784 40.166C16.3398 39.7985 15.2855 38.7161 14.9278 37.3416C14.2778 34.8504 14.2778 29.6528 14.2778 29.6528C14.2778 29.6528 14.2778 24.4551 14.9278 21.964C15.2855 20.5896 16.3398 19.5072 17.6784 19.1399C20.1046 18.4723 29.8333 18.4723 29.8333 18.4723C29.8333 18.4723 39.5621 18.4723 41.9881 19.1399Z" fill="#F9F9FE"/>
<path fill-rule="evenodd" clip-rule="evenodd" d="M26.9167 34.9996V25.2773L34.6945 30.1386L26.9167 34.9996Z" fill="#F9F9FE"/>
</svg>
