<svg width="1440" height="283" viewBox="0 0 1440 283" fill="none" xmlns="http://www.w3.org/2000/svg">
<path d="M392.7 154.999C517.7 236.799 616.1 275.099 712 278.999C814.9 283.199 916.9 247.099 1033 165.299C1121.6 102.899 1217.2 87.8994 1317.2 120.699C1380.8 141.499 1426.3 175.999 1439.9 186.999V190.899C1429.4 182.199 1382.9 145.299 1316.3 123.499C1217.2 90.9994 1122.4 105.899 1034.7 167.699C924.1 245.599 826.2 282.299 728.1 282.299C722.7 282.299 717.2 282.199 711.8 281.999C615.4 277.999 516.5 239.599 391.1 157.399C202.4 33.8994 41.5 26.4994 0 26.8994V23.8994C42.1 23.4994 203.6 31.0994 392.7 154.999Z" fill="#E87964"/>
<path d="M109 11.4996C152.8 20.0996 197.3 33.2996 241.2 50.4996C296.1 72.0996 350.2 100.3 402.1 134.3C524 214.1 619.3 251.4 711.4 255.2C809.7 259.3 907.8 224.3 1020.1 145.1C1072 108.5 1127.3 87.0996 1184.3 81.5996C1229.9 77.1996 1276.7 82.7996 1323.5 98.2996C1377.3 116.1 1418.7 143.2 1440 159V162.7C1419.4 147.2 1377.5 119.3 1322.4 101C1276.1 85.5996 1229.7 80.0996 1184.5 84.4996C1128 89.9996 1073.3 111.2 1021.8 147.5C914.8 222.9 820.5 258.4 726.7 258.4C721.6 258.4 716.4 258.3 711.3 258.1C618.7 254.3 522.8 216.9 400.6 136.8C283.5 60.0996 177.2 27.8996 108.6 14.3996C57.4 4.39961 19 2.89961 0 2.99961V-0.000389617C19.2 -0.10039 57.7 1.39961 109 11.4996Z" fill="#E87964"/>
</svg>
