<svg width="375" height="119" viewBox="0 0 375 119" fill="none" xmlns="http://www.w3.org/2000/svg">
<path d="M641 86.7171C545.615 40.8303 470.65 19.3913 397.92 17.1854C320.051 14.822 242.68 35.0004 154.408 80.6738C107.647 104.868 58.4491 117 7.44371 117C-19.1861 117 -46.3034 113.696 -73.842 107.073C-134.855 92.3996 -175.594 65.9135 -176 65.6441" stroke="#E87964" stroke-width="3" stroke-miterlimit="10"/>
<path d="M-169 52.7932C-168.614 53.0474 -129.651 78.3076 -70.8943 92.4348C6.40657 111.015 80.2933 102.5 148.713 67.1187C239.066 20.3958 318.48 -0.238371 398.626 2.19157C473.255 4.44866 549.854 26.2876 647 72.9953" stroke="#E87964" stroke-width="3" stroke-miterlimit="10"/>
</svg>
