<svg width="1440" height="281" viewBox="0 0 1440 281" fill="none" xmlns="http://www.w3.org/2000/svg">
<path d="M1317 160.7C1217.6 193.3 1122.6 178.3 1034.6 116.3C919.2 35 817.9 -0.899996 715.7 3.3C620.5 7.2 522.7 45.2 398.6 126.5C214.6 247.2 56.9 256.8 11.2 256.8C5.9 256.8 2.2 256.7 0 256.6V253.6C19.9 254.6 191.8 258.5 396.9 124.1C521.5 42.4 619.8 4.3 715.6 0.300004C818.5 -3.9 920.4 32.1 1036.4 113.8C1123.6 175.2 1217.7 190 1316.1 157.8C1384.9 135.3 1432.2 96.6 1440 90V93.9C1427.9 103.8 1381.9 139.4 1317 160.7Z" fill="#A4DAD2"/>
<path d="M116.1 266.2C184.2 252.8 289.9 220.8 406.3 144.6C527.8 65.0002 623 27.8002 715 24.0002C813.3 20.0002 911.3 54.9002 1023.5 133.9C1074.6 169.9 1129 191 1185.1 196.5C1230 200.9 1276.1 195.4 1322.1 180.1C1377.8 161.7 1420 133.2 1440 118V121.8C1419.1 137.4 1377.5 164.9 1323.2 182.9C1276.8 198.3 1230.2 203.9 1184.9 199.5C1128.3 194 1073.4 172.7 1021.8 136.4C910.2 57.7002 812.7 23.0002 715.1 27.0002C623.6 30.8002 528.9 67.8002 408 147.1C356.4 180.9 302.7 208.9 248.1 230.4C204.5 247.6 160.3 260.6 116.7 269.2C67.1 279 29.6 280.6 10 280.6C5.8 280.6 2.5 280.5 0 280.4V277.4C13.8 277.8 56 278 116.1 266.2Z" fill="#A4DAD2"/>
</svg>
