<svg width="1440" height="282" viewBox="0 0 1440 282" fill="none" xmlns="http://www.w3.org/2000/svg">
<path d="M123 161.7C222.4 194.3 317.4 179.3 405.4 117.3C520.7 36.0002 622 0.100212 724.2 4.30021C819.4 8.20021 917.2 46.2002 1041.3 127.5C1225.3 248.1 1382.9 257.7 1428.7 257.7C1434 257.7 1437.7 257.6 1439.9 257.5V254.5C1420 255.5 1248.1 259.4 1043 125C918.4 43.4002 820.2 5.30021 724.4 1.30021C621.5 -2.89979 519.5 33.2002 403.6 114.8C316.4 176.2 222.3 191 123.9 158.8C55.1 136.3 7.8 97.6002 0 91.0002V94.9002C12.1 104.8 58 140.4 123 161.7Z" fill="#E87964"/>
<path d="M1323.8 267.2C1255.7 253.8 1150 221.8 1033.6 145.6C912.2 66.0002 817 28.8002 724.9 25.0002C626.6 21.0002 528.6 55.9002 416.4 134.9C365.3 170.9 310.9 192 254.8 197.5C209.9 201.9 163.8 196.4 117.8 181.1C62.2 162.6 20 134.2 0 119V122.8C20.9 138.4 62.5 165.9 116.8 183.9C163.2 199.3 209.8 204.9 255.1 200.5C311.7 195 366.6 173.7 418.2 137.4C529.8 58.7002 627.2 24.0002 724.8 28.0002C816.3 31.8002 911 68.8002 1032 148.1C1083.6 181.9 1137.3 209.9 1191.9 231.4C1235.5 248.6 1279.7 261.6 1323.3 270.2C1372.9 280 1410.4 281.6 1430 281.6C1434.2 281.6 1437.5 281.5 1440 281.4V278.4C1426.1 278.8 1383.9 279 1323.8 267.2Z" fill="#E87964"/>
</svg>
