<svg width="1440" height="283" viewBox="0 0 1440 283" fill="none" xmlns="http://www.w3.org/2000/svg">
<path d="M392.7 155C517.7 236.8 616.1 275.1 712 279C814.9 283.2 916.9 247.1 1033 165.3C1121.6 102.9 1217.2 87.9 1317.2 120.7C1380.8 141.5 1426.3 176 1439.9 187V190.9C1429.4 182.2 1382.9 145.3 1316.3 123.5C1217.2 91 1122.4 105.9 1034.7 167.7C924.1 245.6 826.2 282.3 728.1 282.3C722.7 282.3 717.2 282.2 711.8 282C615.4 278 516.5 239.6 391.1 157.4C202.4 33.9 41.5 26.5 0 26.9V23.9C42.1 23.5 203.6 31.1 392.7 155Z" fill="#E87964"/>
<path d="M109 11.5C152.8 20.1 197.3 33.3 241.2 50.5C296.1 72.1 350.2 100.3 402.1 134.3C524 214.1 619.3 251.4 711.4 255.2C809.7 259.3 907.8 224.3 1020.1 145.1C1072 108.5 1127.3 87.1 1184.3 81.6C1229.9 77.2 1276.7 82.8 1323.5 98.3C1377.3 116.1 1418.7 143.2 1440 159V162.7C1419.4 147.2 1377.5 119.3 1322.4 101C1276.1 85.6 1229.7 80.1 1184.5 84.5C1128 90 1073.3 111.2 1021.8 147.5C914.8 222.9 820.5 258.4 726.7 258.4C721.6 258.4 716.4 258.3 711.3 258.1C618.7 254.3 522.8 216.9 400.6 136.8C283.5 60.1 177.2 27.9 108.6 14.4C57.4 4.4 19 2.9 0 3V-5.18281e-07C19.2 -0.100001 57.7 1.4 109 11.5Z" fill="#E87964"/>
</svg>
