<svg width="1440" height="281" viewBox="0 0 1440 281" fill="none" xmlns="http://www.w3.org/2000/svg">
<path d="M123 160.7C222.4 193.3 317.4 178.3 405.4 116.3C520.7 35.0002 622 -0.899788 724.2 3.30021C819.4 7.20021 917.2 45.2002 1041.3 126.5C1225.3 247.1 1382.9 256.7 1428.7 256.7C1434 256.7 1437.7 256.6 1439.9 256.5V253.5C1420 254.5 1248.1 258.4 1043 124C918.4 42.4002 820.2 4.30021 724.4 0.300212C621.5 -3.89979 519.5 32.2002 403.6 113.8C316.4 175.2 222.3 190 123.9 157.8C55.1 135.3 7.8 96.6002 0 90.0002V93.9002C12.1 103.8 58 139.4 123 160.7Z" fill="#E87964"/>
<path d="M1323.8 266.2C1255.7 252.8 1150 220.8 1033.6 144.6C912.2 65.0002 817 27.8002 724.9 24.0002C626.6 20.0002 528.6 54.9002 416.4 133.9C365.3 169.9 310.9 191 254.8 196.5C209.9 200.9 163.8 195.4 117.8 180.1C62.2 161.6 20 133.2 0 118V121.8C20.9 137.4 62.5 164.9 116.8 182.9C163.2 198.3 209.8 203.9 255.1 199.5C311.7 194 366.6 172.7 418.2 136.4C529.8 57.7002 627.2 23.0002 724.8 27.0002C816.3 30.8002 911 67.8002 1032 147.1C1083.6 180.9 1137.3 208.9 1191.9 230.4C1235.5 247.6 1279.7 260.6 1323.3 269.2C1372.9 279 1410.4 280.6 1430 280.6C1434.2 280.6 1437.5 280.5 1440 280.4V277.4C1426.1 277.8 1383.9 278 1323.8 266.2Z" fill="#E87964"/>
</svg>
